<svg version="1.1" id="Layer_1" xmlns="http://www.w3.org/2000/svg" xmlns:xlink="http://www.w3.org/1999/xlink" x="0px" y="0px"
	 width="100%" viewBox="0 0 496 496" enable-background="new 0 0 496 496" xml:space="preserve">
<path fill="#000000" opacity="1.000000" stroke="none" 
	d="
M204.999222,186.843857 
	C210.163589,186.849167 214.830536,186.764267 219.491867,186.889313 
	C222.631348,186.973541 224.045319,185.751724 224.035156,182.516663 
	C223.981705,165.524628 223.987518,148.532104 224.063919,131.540176 
	C224.079758,128.017090 222.383972,127.003830 219.128448,126.927452 
	C215.049118,126.831757 210.864639,127.719681 205.823135,125.851547 
	C213.187454,114.648811 220.304855,103.821709 228.263412,91.715042 
	C236.064514,103.576416 243.192215,114.413902 250.518707,125.553619 
	C245.759262,127.905319 241.378326,126.858818 237.172928,126.913040 
	C233.521713,126.960121 232.231583,128.298874 232.262817,131.969360 
	C232.401688,148.294250 232.468903,164.623184 232.226273,180.945679 
	C232.158524,185.503464 233.500336,186.998459 238.131409,186.974655 
	C265.451660,186.834244 292.773315,186.959717 320.094482,187.010330 
	C327.372314,187.023804 327.261322,187.049438 327.331024,194.195023 
	C327.655975,227.503754 327.774078,260.817749 328.489685,294.118591 
	C329.276794,330.745850 330.330170,367.366455 330.308350,404.005737 
	C330.307220,405.874817 331.142578,408.130707 328.967621,409.478241 
	C326.201294,411.192169 322.836426,409.362122 322.698944,405.996246 
	C322.372833,398.012268 322.024414,390.025696 321.915588,382.037018 
	C321.448242,347.729858 321.556335,313.406250 320.490387,279.118591 
	C319.672668,252.814438 320.203339,226.493729 318.941193,200.203079 
	C318.769104,196.618622 317.705719,195.243866 313.970886,195.260361 
	C288.482727,195.372971 262.993195,195.388062 237.505661,195.212906 
	C233.173950,195.183136 232.205444,196.868881 232.251526,200.811646 
	C232.422913,215.469772 232.435471,230.132980 232.214417,244.789841 
	C232.168243,247.851456 234.546371,253.035477 228.118362,252.823135 
	C221.971420,252.620102 224.214157,247.589798 224.165909,244.454971 
	C223.945557,230.131317 223.910522,215.800079 224.141510,201.476913 
	C224.217834,196.744888 222.767532,195.080811 217.891006,195.176605 
	C204.236160,195.444839 190.571838,195.244110 176.911362,195.198792 
	C174.423691,195.190536 171.766098,195.524841 171.603424,191.680115 
	C171.465103,188.410248 172.362228,186.707657 176.015366,186.765335 
	C185.508087,186.915237 195.004486,186.832764 204.999222,186.843857 
z"/>
</svg>